<svg width="49" height="49" viewBox="0 0 49 49" fill="none" xmlns="http://www.w3.org/2000/svg">
<path d="M16.3333 8.16671H14.7004C12.4135 8.16671 11.2692 8.16671 10.3957 8.61176C9.62741 9.00325 9.0032 9.62746 8.61171 10.3958C8.16666 11.2693 8.16666 12.4136 8.16666 14.7004V16.3334M16.3333 8.16671H32.6667M16.3333 8.16671V4.08337M32.6667 8.16671H34.3004C36.5873 8.16671 37.7291 8.16671 38.6026 8.61176C39.3709 9.00325 39.9972 9.62746 40.3887 10.3958C40.8333 11.2684 40.8333 12.4113 40.8333 14.6937V16.3334M32.6667 8.16671V4.08337M8.16666 16.3334V34.3004C8.16666 36.5873 8.16666 37.7302 8.61171 38.6036C9.0032 39.372 9.62741 39.9973 10.3957 40.3888C11.2684 40.8334 12.4113 40.8334 14.6937 40.8334H34.3063C36.5887 40.8334 37.73 40.8334 38.6026 40.3888C39.3709 39.9973 39.9972 39.372 40.3887 38.6036C40.8333 37.731 40.8333 36.5898 40.8333 34.3073V16.3334M8.16666 16.3334H40.8333M32.6667 32.6667H32.6707L32.6706 32.6708L32.6667 32.6707V32.6667ZM24.5 32.6667H24.5041L24.504 32.6708L24.5 32.6707V32.6667ZM16.3333 32.6667H16.3374L16.3373 32.6708L16.3333 32.6707V32.6667ZM32.6706 24.5V24.5041L32.6667 24.504V24.5H32.6706ZM24.5 24.5H24.5041L24.504 24.5041L24.5 24.504V24.5ZM16.3333 24.5H16.3374L16.3373 24.5041L16.3333 24.504V24.5Z" stroke="black" stroke-width="2" stroke-linecap="round" stroke-linejoin="round"/>
</svg>
