<svg width="61" height="63" viewBox="0 0 61 63" fill="none" xmlns="http://www.w3.org/2000/svg">
<path d="M7.625 7.875H8.30705C9.51124 7.875 10.1144 7.875 10.6055 8.09938C11.0386 8.29721 11.4088 8.61571 11.6758 9.01959C11.9781 9.47692 12.0873 10.0876 12.3052 11.3066L17.7918 42.0001L44.2804 42C45.4323 42 46.01 42 46.4872 41.7898C46.9086 41.6041 47.2721 41.3034 47.5421 40.921C47.8473 40.4886 47.9767 39.9097 48.2351 38.7531L48.2371 38.7449L52.2255 20.8949L52.2264 20.8912C52.6184 19.1367 52.8149 18.2573 52.5991 17.5675C52.4098 16.9623 52.0114 16.4492 51.483 16.1225C50.8802 15.75 50.0093 15.75 48.263 15.75H13.9792M45.75 55.125C44.3463 55.125 43.2083 53.9497 43.2083 52.5C43.2083 51.0503 44.3463 49.875 45.75 49.875C47.1537 49.875 48.2917 51.0503 48.2917 52.5C48.2917 53.9497 47.1537 55.125 45.75 55.125ZM20.3333 55.125C18.9296 55.125 17.7917 53.9497 17.7917 52.5C17.7917 51.0503 18.9296 49.875 20.3333 49.875C21.7371 49.875 22.875 51.0503 22.875 52.5C22.875 53.9497 21.7371 55.125 20.3333 55.125Z" stroke="black" stroke-width="2" stroke-linecap="round" stroke-linejoin="round"/>
</svg>
