<svg width="45" height="49" viewBox="0 0 45 49" fill="none" xmlns="http://www.w3.org/2000/svg">
<path d="M9.375 20.2592C9.375 30.165 17.3334 38.3566 20.856 41.4973C21.3601 41.9468 21.6152 42.1742 21.9913 42.2895C22.2842 42.3793 22.7152 42.3793 23.0081 42.2895C23.3849 42.174 23.6382 41.9488 24.1443 41.4976C27.6669 38.357 35.6248 30.1659 35.6248 20.2601C35.6248 16.5113 34.2421 12.9157 31.7807 10.2649C29.3193 7.61418 25.9811 6.125 22.5002 6.125C19.0192 6.125 15.6806 7.6144 13.2192 10.2652C10.7578 12.9159 9.375 16.5104 9.375 20.2592Z" stroke="black" stroke-width="2" stroke-linecap="round" stroke-linejoin="round"/>
<path d="M18.75 18.375C18.75 20.6302 20.4289 22.4583 22.5 22.4583C24.5711 22.4583 26.25 20.6302 26.25 18.375C26.25 16.1198 24.5711 14.2917 22.5 14.2917C20.4289 14.2917 18.75 16.1198 18.75 18.375Z" stroke="black" stroke-width="2" stroke-linecap="round" stroke-linejoin="round"/>
</svg>
